# xmcd
#
# Track frame offsets:
#	150
#	15912
#	29000
#	39883
#	54185
#	66885
#	79289
#	91227
#	104954
#	115340
#	127074
#	140018
#	152941
#	166738
#	178359
#	189870
#	201435
#	209071
#	222923
#	233327
#
# Disc length: 3277
#
# Revision: 1
# Processed by: cddbd v1.5.1PL0 Copyright (c) Steve Scherf et al.
# Submitted via: CDex 1.51
# Normalized: r0:TDELIM( - ),TSWAP
#
DISCID=220ccb14
DTITLE=Dean Martin Sammy Davis Jr Frank Sinatra - The Rat Pack (Disk One)
DYEAR=2003
DGENRE=Jazz
TTITLE0=Frank Sinatra - The Birth Of The Blues
TTITLE1=Dean Martin - Walkin' My Baby Back Home
TTITLE2=Sammy Davis Jr - Azure
TTITLE3=Frank Sinatra - I'll Never Smile Again
TTITLE4=Dean Martin - All Of Me
TTITLE5=Sammy Davis Jr - I Don't Care Who Knows
TTITLE6=Frank Sinatra - Chatanoogie Shoe Shine Boy
TTITLE7=Dean Martin - When You're Smiling
TTITLE8=Sammy Davis Jr - Wagon Wheels
TTITLE9=Frank Sinatra - American Beauty Rose
TTITLE10=Dean Martin - Santa Lucia
TTITLE11=Sammy Davis Jr (as Charlie Green) - What Can I Do
TTITLE12=Frank Sinatra - The Hucklebuck
TTITLE13=Dean Martin Sammy - Baby, Obey Me
TTITLE14=Dean Martin - Powder Your Face With Sinshine
TTITLE15=Sammy Davis Jr - Laura
TTITLE16=Frank Sinatra - 's Wonderfull
TTITLE17=Dean Martin - Muskrat Ramble
TTITLE18=Dean Martin - Who's Sorry Now
TTITLE19=Sammy Davis Jr - Can't You See I've Got The Blues
EXTD=YEAR: 2003
EXTT0=
EXTT1=
EXTT2=
EXTT3=
EXTT4=
EXTT5=
EXTT6=
EXTT7=
EXTT8=
EXTT9=
EXTT10=
EXTT11=
EXTT12=
EXTT13=
EXTT14=
EXTT15=
EXTT16=
EXTT17=
EXTT18=
EXTT19=
PLAYORDER=
